<svg width="16" height="16" viewBox="0 0 16 16" fill="none" xmlns="http://www.w3.org/2000/svg"><mask id="mask0_3359_15585" maskUnits="userSpaceOnUse" x="0" y="0" width="16" height="16"><rect width="16" height="16" fill="#D9D9D9"></rect></mask><g mask="url(#mask0_3359_15585)"><path d="M4.6665 10.6667C4.29984 10.6667 3.98595 10.5361 3.72484 10.275C3.46373 10.0139 3.33317 9.70002 3.33317 9.33335V4.00002C3.33317 3.63335 3.46373 3.31946 3.72484 3.05835C3.98595 2.79724 4.29984 2.66669 4.6665 2.66669H13.9998C14.3665 2.66669 14.6804 2.79724 14.9415 3.05835C15.2026 3.31946 15.3332 3.63335 15.3332 4.00002V9.33335C15.3332 9.70002 15.2026 10.0139 14.9415 10.275C14.6804 10.5361 14.3665 10.6667 13.9998 10.6667H4.6665ZM5.99984 9.33335H12.6665C12.6665 8.96669 12.7971 8.6528 13.0582 8.39169C13.3193 8.13058 13.6332 8.00002 13.9998 8.00002V5.33335C13.6332 5.33335 13.3193 5.2028 13.0582 4.94169C12.7971 4.68058 12.6665 4.36669 12.6665 4.00002H5.99984C5.99984 4.36669 5.86928 4.68058 5.60817 4.94169C5.34706 5.2028 5.03317 5.33335 4.6665 5.33335V8.00002C5.03317 8.00002 5.34706 8.13058 5.60817 8.39169C5.86928 8.6528 5.99984 8.96669 5.99984 9.33335ZM12.6665 13.3334H1.99984C1.63317 13.3334 1.31928 13.2028 1.05817 12.9417C0.797059 12.6806 0.666504 12.3667 0.666504 12V5.33335C0.666504 5.14446 0.730393 4.98613 0.858171 4.85835C0.985948 4.73058 1.14428 4.66669 1.33317 4.66669C1.52206 4.66669 1.68039 4.73058 1.80817 4.85835C1.93595 4.98613 1.99984 5.14446 1.99984 5.33335V12H12.6665C12.8554 12 13.0137 12.0639 13.1415 12.1917C13.2693 12.3195 13.3332 12.4778 13.3332 12.6667C13.3332 12.8556 13.2693 13.0139 13.1415 13.1417C13.0137 13.2695 12.8554 13.3334 12.6665 13.3334Z" fill="#092256"></path><path d="M7.91634 8.08335C8.30523 8.47224 8.77745 8.66669 9.33301 8.66669C9.88856 8.66669 10.3608 8.47224 10.7497 8.08335C11.1386 7.69447 11.333 7.22224 11.333 6.66669C11.333 6.11113 11.1386 5.63891 10.7497 5.25002C10.3608 4.86113 9.88856 4.66669 9.33301 4.66669C8.77745 4.66669 8.30523 4.86113 7.91634 5.25002C7.52745 5.63891 7.33301 6.11113 7.33301 6.66669C7.33301 7.22224 7.52745 7.69447 7.91634 8.08335Z" fill="#0357EE"></path></g></svg>