<svg width="16" height="16" viewBox="0 0 16 16" fill="none" xmlns="http://www.w3.org/2000/svg"><mask id="mask0_3359_15270" maskUnits="userSpaceOnUse" x="0" y="0" width="16" height="16"><rect width="16" height="16" fill="#D9D9D9"></rect></mask><g mask="url(#mask0_3359_15270)"><path d="M2.66683 5.33335H13.3335V4.00002H2.66683V5.33335ZM1.3335 4.00002C1.3335 3.63335 1.46405 3.31946 1.72516 3.05835C1.98627 2.79724 2.30016 2.66669 2.66683 2.66669H13.3335C13.7002 2.66669 14.0141 2.79724 14.2752 3.05835C14.5363 3.31946 14.6668 3.63335 14.6668 4.00002V8.00002H2.66683V12H4.7335C4.92239 12 5.08072 12.0639 5.2085 12.1917C5.33627 12.3195 5.40016 12.4778 5.40016 12.6667C5.40016 12.8556 5.33627 13.0139 5.2085 13.1417C5.08072 13.2695 4.92239 13.3334 4.7335 13.3334H2.66683C2.30016 13.3334 1.98627 13.2028 1.72516 12.9417C1.46405 12.6806 1.3335 12.3667 1.3335 12V4.00002ZM2.66683 4.00002V12V9.82502V10.8834V4.00002Z" fill="#092256"></path><path d="M13.2502 9.48332L9.96687 12.7667L8.53354 11.3667C8.4002 11.2444 8.24187 11.1833 8.05854 11.1833C7.8752 11.1833 7.72243 11.2444 7.6002 11.3667C7.46687 11.5 7.40298 11.6583 7.40854 11.8417C7.41409 12.025 7.47798 12.1778 7.6002 12.3L9.5002 14.2C9.63354 14.3333 9.78909 14.4 9.96687 14.4C10.1446 14.4 10.3002 14.3333 10.4335 14.2L14.2002 10.4333C14.3335 10.3 14.3974 10.1444 14.3919 9.96665C14.3863 9.78888 14.3224 9.63332 14.2002 9.49999C14.0669 9.36665 13.9085 9.29721 13.7252 9.29165C13.5419 9.2861 13.3835 9.34999 13.2502 9.48332Z" fill="#0357EE"></path></g></svg>