<svg width="64" height="64" viewBox="0 0 64 64" fill="none" xmlns="http://www.w3.org/2000/svg"><rect width="64" height="64" rx="32" fill="#C4E9FD" fill-opacity="0.2"></rect><path d="M25.1078 31.3926L30.2507 26.2498C30.4117 26.0887 30.6301 25.9983 30.8578 25.9983C31.0855 25.9983 31.3039 26.0887 31.465 26.2498C31.626 26.4108 31.7165 26.6292 31.7165 26.8569C31.7165 27.0846 31.626 27.303 31.465 27.464L27.7857 31.1419L38.2857 31.1419C38.513 31.1419 38.731 31.2322 38.8918 31.3929C39.0525 31.5537 39.1428 31.7717 39.1428 31.999C39.1428 32.2264 39.0525 32.4444 38.8918 32.6051C38.731 32.7659 38.513 32.8562 38.2857 32.8562L27.7857 32.8562L31.4635 36.5362C31.6246 36.6972 31.715 36.9156 31.715 37.1433C31.715 37.371 31.6246 37.5894 31.4635 37.7505C31.3025 37.9115 31.0841 38.002 30.8564 38.002C30.6287 38.002 30.4103 37.9115 30.2493 37.7505L25.1064 32.6076C25.0265 32.5279 24.9631 32.4331 24.9199 32.3288C24.8767 32.2245 24.8545 32.1127 24.8546 31.9998C24.8548 31.8869 24.8772 31.7752 24.9207 31.671C24.9641 31.5668 25.0277 31.4722 25.1078 31.3926Z" fill="white"></path></svg>