<svg width="16" height="16" viewBox="0 0 16 16" fill="none" xmlns="http://www.w3.org/2000/svg"><mask id="mask0_3359_15184" maskUnits="userSpaceOnUse" x="0" y="0" width="16" height="16"><rect width="16" height="16" fill="#D9D9D9"></rect></mask><g mask="url(#mask0_3359_15184)"><path d="M2.00016 14C1.81127 14 1.65294 13.9361 1.52516 13.8083C1.39738 13.6805 1.3335 13.5222 1.3335 13.3333C1.3335 13.1444 1.39738 12.9861 1.52516 12.8583C1.65294 12.7305 1.81127 12.6666 2.00016 12.6666H14.0002C14.1891 12.6666 14.3474 12.7305 14.4752 12.8583C14.6029 12.9861 14.6668 13.1444 14.6668 13.3333C14.6668 13.5222 14.6029 13.6805 14.4752 13.8083C14.3474 13.9361 14.1891 14 14.0002 14H2.00016ZM14.0002 5.33331H1.9335C1.76683 5.33331 1.62516 5.27498 1.5085 5.15831C1.39183 5.04165 1.3335 4.89998 1.3335 4.73331V4.36665C1.3335 4.24442 1.36405 4.13887 1.42516 4.04998C1.48627 3.96109 1.56683 3.88887 1.66683 3.83331L7.40016 0.966646C7.58905 0.877757 7.78905 0.833313 8.00016 0.833313C8.21127 0.833313 8.41127 0.877757 8.60016 0.966646L14.3002 3.81665C14.4224 3.8722 14.5141 3.95554 14.5752 4.06665C14.6363 4.17776 14.6668 4.29442 14.6668 4.41665V4.66665C14.6668 4.85554 14.6029 5.01387 14.4752 5.14165C14.3474 5.26942 14.1891 5.33331 14.0002 5.33331Z" fill="#092256"></path><path d="M3.3335 7.33329V10.6666C3.3335 10.8555 3.39739 11.0138 3.52516 11.1416C3.65294 11.2694 3.81127 11.3333 4.00016 11.3333C4.18905 11.3333 4.34739 11.2694 4.47516 11.1416C4.60294 11.0138 4.66683 10.8555 4.66683 10.6666V7.33329C4.66683 7.1444 4.60294 6.98607 4.47516 6.85829C4.34739 6.73052 4.18905 6.66663 4.00016 6.66663C3.81127 6.66663 3.65294 6.73052 3.52516 6.85829C3.39739 6.98607 3.3335 7.1444 3.3335 7.33329Z" fill="#0357EE"></path><path d="M7.3335 7.33329V10.6666C7.3335 10.8555 7.39739 11.0138 7.52516 11.1416C7.65294 11.2694 7.81127 11.3333 8.00016 11.3333C8.18905 11.3333 8.34739 11.2694 8.47516 11.1416C8.60294 11.0138 8.66683 10.8555 8.66683 10.6666V7.33329C8.66683 7.1444 8.60294 6.98607 8.47516 6.85829C8.34739 6.73052 8.18905 6.66663 8.00016 6.66663C7.81127 6.66663 7.65294 6.73052 7.52516 6.85829C7.39739 6.98607 7.3335 7.1444 7.3335 7.33329Z" fill="#0357EE"></path><path d="M11.3335 7.33329V10.6666C11.3335 10.8555 11.3974 11.0138 11.5252 11.1416C11.6529 11.2694 11.8113 11.3333 12.0002 11.3333C12.1891 11.3333 12.3474 11.2694 12.4752 11.1416C12.6029 11.0138 12.6668 10.8555 12.6668 10.6666V7.33329C12.6668 7.1444 12.6029 6.98607 12.4752 6.85829C12.3474 6.73052 12.1891 6.66663 12.0002 6.66663C11.8113 6.66663 11.6529 6.73052 11.5252 6.85829C11.3974 6.98607 11.3335 7.1444 11.3335 7.33329Z" fill="#0357EE"></path></g></svg>