<svg width="64" height="64" viewBox="0 0 64 64" fill="none" xmlns="http://www.w3.org/2000/svg"><g clip-path="url(#clip0_2267_38498)"><rect width="64" height="64" rx="32" fill="#C4E9FD" fill-opacity="0.2"></rect><path d="M38.8922 32.6074L33.7493 37.7502C33.5883 37.9113 33.3699 38.0017 33.1422 38.0017C32.9145 38.0017 32.6961 37.9113 32.535 37.7502C32.374 37.5892 32.2835 37.3708 32.2835 37.1431C32.2835 36.9154 32.374 36.697 32.535 36.536L36.2143 32.8581H25.7143C25.487 32.8581 25.269 32.7678 25.1082 32.6071C24.9475 32.4463 24.8572 32.2283 24.8572 32.001C24.8572 31.7736 24.9475 31.5556 25.1082 31.3949C25.269 31.2341 25.487 31.1438 25.7143 31.1438H36.2143L32.5365 27.4638C32.3754 27.3028 32.285 27.0844 32.285 26.8567C32.285 26.629 32.3754 26.4106 32.5365 26.2495C32.6975 26.0885 32.9159 25.998 33.1436 25.998C33.3713 25.998 33.5897 26.0885 33.7507 26.2495L38.8936 31.3924C38.9735 31.4721 39.0369 31.5669 39.0801 31.6712C39.1233 31.7755 39.1455 31.8873 39.1454 32.0002C39.1452 32.1131 39.1228 32.2248 39.0793 32.329C39.0359 32.4332 38.9723 32.5278 38.8922 32.6074Z" fill="white"></path></g><defs><clipPath id="clip0_2267_38498"><rect width="64" height="64" rx="32" fill="white"></rect></clipPath></defs></svg>