<svg width="32" height="33" viewBox="0 0 32 33" fill="none" xmlns="http://www.w3.org/2000/svg"><mask id="mask0_3843_25355" maskUnits="userSpaceOnUse" x="4" y="4" width="24" height="25"><rect x="4" y="4.5" width="24" height="24" fill="#D9D9D9"></rect></mask><g mask="url(#mask0_3843_25355)"><path d="M19.35 24.5L17.4 26.425C17.0167 26.8083 16.55 27 16 27C15.45 27 14.9833 26.8083 14.6 26.425L12.65 24.5H10C9.45 24.5 8.97917 24.3042 8.5875 23.9125C8.19583 23.5208 8 23.05 8 22.5V19.85L6.075 17.9C5.69167 17.5167 5.5 17.05 5.5 16.5C5.5 15.95 5.69167 15.4833 6.075 15.1L8 13.15V10.5C8 9.95 8.19583 9.47917 8.5875 9.0875C8.97917 8.69583 9.45 8.5 10 8.5H12.65L14.6 6.575C14.9833 6.19167 15.45 6 16 6C16.55 6 17.0167 6.19167 17.4 6.575L19.35 8.5H22C22.55 8.5 23.0208 8.69583 23.4125 9.0875C23.8042 9.47917 24 9.95 24 10.5V13.15L25.925 15.1C26.3083 15.4833 26.5 15.95 26.5 16.5C26.5 17.05 26.3083 17.5167 25.925 17.9L24 19.85V22.5C24 23.05 23.8042 23.5208 23.4125 23.9125C23.0208 24.3042 22.55 24.5 22 24.5H19.35ZM16 25L18.5 22.5H22V19L24.5 16.5L22 14V10.5H18.5L16 8L13.5 10.5H10V14L7.5 16.5L10 19V22.5H13.5L16 25ZM16 18.975L17.9 20.125C18.0833 20.2417 18.2667 20.2375 18.45 20.1125C18.6333 19.9875 18.7 19.8167 18.65 19.6L18.15 17.425L19.85 15.95C20.0167 15.8 20.0667 15.6208 20 15.4125C19.9333 15.2042 19.7833 15.0917 19.55 15.075L17.325 14.9L16.45 12.85C16.3667 12.65 16.2167 12.55 16 12.55C15.7833 12.55 15.6333 12.65 15.55 12.85L14.675 14.9L12.45 15.075C12.2167 15.0917 12.0667 15.2042 12 15.4125C11.9333 15.6208 11.9833 15.8 12.15 15.95L13.85 17.425L13.35 19.6C13.3 19.8167 13.3667 19.9875 13.55 20.1125C13.7333 20.2375 13.9167 20.2417 14.1 20.125L16 18.975Z" fill="#C4E9FD"></path></g></svg>