<svg width="16" height="17" viewBox="0 0 16 17" fill="none" xmlns="http://www.w3.org/2000/svg"><mask id="mask0_2218_11392" maskUnits="userSpaceOnUse" x="0" y="0" width="16" height="17"><rect y="0.5" width="16" height="16" fill="#D9D9D9"></rect></mask><g mask="url(#mask0_2218_11392)"><path d="M10.2653 9.38349H3.22977C2.98436 9.38349 2.77578 9.29761 2.60404 9.12587C2.4323 8.95412 2.34644 8.74555 2.34644 8.50014C2.34644 8.25472 2.4323 8.04615 2.60404 7.8744C2.77578 7.70266 2.98436 7.61679 3.22977 7.61679H10.2653L7.366 4.71754C7.1887 4.54024 7.10126 4.3313 7.10369 4.09072C7.1061 3.85013 7.19595 3.64119 7.37325 3.4639C7.55055 3.29771 7.75949 3.21341 8.00007 3.21099C8.24065 3.20857 8.44959 3.29602 8.62689 3.47332L13.0269 7.87332C13.1124 7.95883 13.1769 8.05617 13.2204 8.16535C13.2638 8.27453 13.2856 8.38612 13.2856 8.50014C13.2856 8.61415 13.2638 8.72574 13.2204 8.83492C13.1769 8.9441 13.1124 9.04144 13.0269 9.12695L8.61747 13.5364C8.445 13.7088 8.23884 13.7951 7.99899 13.7951C7.75913 13.7951 7.55055 13.7088 7.37325 13.5364C7.19595 13.3591 7.1073 13.1489 7.1073 12.9059C7.1073 12.6629 7.19595 12.4528 7.37325 12.2755L10.2653 9.38349Z" fill="#092256"></path></g></svg>