<svg width="24" height="25" viewBox="0 0 24 25" fill="none" xmlns="http://www.w3.org/2000/svg"><path d="M12 0.5C9.62663 0.5 7.30655 1.20379 5.33316 2.52236C3.35977 3.84094 1.8217 5.71508 0.913451 7.9078C0.00519943 10.1005 -0.232441 12.5133 0.230582 14.8411C0.693605 17.1689 1.83649 19.307 3.51472 20.9853C5.19295 22.6635 7.33115 23.8064 9.65892 24.2694C11.9867 24.7324 14.3995 24.4948 16.5922 23.5865C18.7849 22.6783 20.6591 21.1402 21.9776 19.1668C23.2962 17.1934 24 14.8734 24 12.5C23.9965 9.31848 22.7311 6.26829 20.4814 4.01862C18.2317 1.76894 15.1815 0.503529 12 0.5ZM21.2367 11.1667H17.7289C17.5571 8.60506 16.8165 6.11393 15.5611 3.87444C17.0573 4.4949 18.3668 5.49303 19.3616 6.77124C20.3565 8.04944 21.0025 9.56396 21.2367 11.1667ZM8.94556 13.8333H15.0567C14.8067 16.7989 13.7233 19.5511 12.0022 21.5944C10.2733 19.5511 9.19556 16.7989 8.94556 13.8333ZM8.94556 11.1667C9.19556 8.20111 10.2733 5.44889 12 3.40556C13.7267 5.44889 14.8044 8.20111 15.0544 11.1667H8.94556ZM8.44445 3.87444C7.1871 6.11348 6.44465 8.60462 6.27112 11.1667H2.76334C2.99798 9.56336 3.64488 8.04844 4.64073 6.77019C5.63657 5.49193 6.94724 4.49413 8.44445 3.87444ZM2.76334 13.8333H6.27112C6.44465 16.3954 7.1871 18.8865 8.44445 21.1256C6.94724 20.5059 5.63657 19.5081 4.64073 18.2298C3.64488 16.9516 2.99798 15.4366 2.76334 13.8333ZM15.5611 21.1256C16.8165 18.8861 17.5571 16.3949 17.7289 13.8333H21.2367C21.0025 15.436 20.3565 16.9506 19.3616 18.2288C18.3668 19.507 17.0573 20.5051 15.5611 21.1256Z" fill="#0357EE"></path></svg>