<svg width="74" height="74" viewBox="0 0 74 74" fill="none" xmlns="http://www.w3.org/2000/svg"><rect width="74" height="74" rx="37" fill="white"></rect><path fill-rule="evenodd" clip-rule="evenodd" d="M35.1892 44.6042L28.4983 37.9124C27.9758 37.3899 27.9758 36.5426 28.4983 36.02L35.1217 29.3966C35.6443 28.8741 36.4916 28.8741 37.0141 29.3966C37.5367 29.9192 37.5367 30.7665 37.0141 31.289L32.6751 35.6281L44.1639 35.6281C44.903 35.6281 45.5021 36.2272 45.5021 36.9662C45.5021 37.7053 44.903 38.3044 44.1639 38.3044L32.6751 38.3044L37.0816 42.7118C37.6042 43.2344 37.6042 44.0816 37.0816 44.6042C36.559 45.1268 35.7118 45.1268 35.1892 44.6042Z" fill="#3E588E"></path></svg>